<svg width="80" height="80" viewBox="0 0 80 80" fill="none" xmlns="http://www.w3.org/2000/svg">
<g filter="url(#filter0_i)">
<path d="M37 1.73205C38.8564 0.660254 41.1436 0.660254 43 1.73205L71.641 18.268C73.4974 19.3397 74.641 21.3205 74.641 23.4641V56.5359C74.641 58.6795 73.4974 60.6603 71.641 61.7321L43 78.268C41.1436 79.3397 38.8564 79.3397 37 78.268L8.35898 61.7321C6.50257 60.6603 5.35898 58.6795 5.35898 56.5359V23.4641C5.35898 21.3205 6.50258 19.3397 8.35898 18.268L37 1.73205Z" fill="#dbec77"/>
</g>
<circle cx="40" cy="39" r="7.5" stroke="#6b7437" stroke-width="3"/>
<circle cx="36.5" cy="22.5" r="4" stroke="#6b7437" stroke-width="3"/>
<circle cx="26" cy="57" r="4.5" stroke="#6b7437" stroke-width="3"/>
<circle cx="57" cy="24" r="4.5" stroke="#6b7437" stroke-width="3"/>
<circle cx="51.5" cy="56.5" r="4" stroke="#6b7437" stroke-width="3"/>
<circle cx="20" cy="34" r="3.5" stroke="#6b7437" stroke-width="3"/>
<line x1="53.9878" y1="27.1289" x2="45.9878" y2="34.1289" stroke="#6b7437" stroke-width="3"/>
<line x1="37.4709" y1="27.7058" x2="38.4709" y2="32.7058" stroke="#6b7437" stroke-width="3"/>
<line x1="24.3254" y1="35.5357" x2="33.3254" y2="37.5357" stroke="#6b7437" stroke-width="3"/>
<line x1="29.8611" y1="53.0238" x2="35.8611" y2="46.0238" stroke="#6b7437" stroke-width="3"/>
<line x1="49.728" y1="52.795" x2="44.728" y2="44.795" stroke="#6b7437" stroke-width="3"/>
<defs>
<filter id="filter0_i" x="5.35898" y="0.9282" width="73.282" height="82.1436" filterUnits="userSpaceOnUse" color-interpolation-filters="sRGB">
<feFlood flood-opacity="0" result="BackgroundImageFix"/>
<feBlend mode="normal" in="SourceGraphic" in2="BackgroundImageFix" result="shape"/>
<feColorMatrix in="SourceAlpha" type="matrix" values="0 0 0 0 0 0 0 0 0 0 0 0 0 0 0 0 0 0 127 0" result="hardAlpha"/>
<feOffset dx="4" dy="4"/>
<feGaussianBlur stdDeviation="3"/>
<feComposite in2="hardAlpha" operator="arithmetic" k2="-1" k3="1"/>
<feColorMatrix type="matrix" values="0 0 0 0 0.833333 0 0 0 0 0.833333 0 0 0 0 0.833333 0 0 0 0.25 0"/>
<feBlend mode="normal" in2="shape" result="effect1_innerShadow"/>
</filter>
</defs>
</svg>
