<svg width="344" height="80" viewBox="0 0 344 80" fill="none" xmlns="http://www.w3.org/2000/svg">
<path d="M132.36 11.448C132.92 11.448 133.2 11.7467 133.2 12.344V52.048C133.2 52.3467 133.088 52.5893 132.864 52.776C132.64 52.9253 132.36 53 132.024 53H125.248C124.949 53 124.688 52.9627 124.464 52.888C124.277 52.776 124.053 52.552 123.792 52.216L107.216 29.368C107.067 29.144 106.936 29.0507 106.824 29.088C106.712 29.088 106.656 29.2 106.656 29.424V51.88V52.048C106.656 52.384 106.563 52.6267 106.376 52.776C106.189 52.9253 105.872 53 105.424 53H98.648C97.8267 53 97.416 52.6453 97.416 51.936V12.624C97.416 12.2133 97.4907 11.9147 97.64 11.728C97.8267 11.5413 98.1253 11.448 98.536 11.448H106.544C106.992 11.448 107.309 11.504 107.496 11.616C107.72 11.728 107.981 11.9707 108.28 12.344L123.176 33.344C123.4 33.6427 123.605 33.792 123.792 33.792C123.979 33.792 124.072 33.568 124.072 33.12V12.512C124.072 11.8027 124.445 11.448 125.192 11.448H132.36ZM141.867 53C141.568 53 141.326 52.9067 141.139 52.72C140.99 52.5333 140.915 52.272 140.915 51.936C140.915 51.6747 140.971 51.4133 141.083 51.152L154.859 12.624C155.008 12.176 155.195 11.8773 155.419 11.728C155.643 11.5413 155.979 11.448 156.427 11.448H166.171C167.067 11.448 167.702 11.9147 168.075 12.848L181.683 51.264C181.72 51.376 181.739 51.5627 181.739 51.824C181.739 52.16 181.664 52.44 181.515 52.664C181.403 52.888 181.216 53 180.955 53H171.267C170.67 53 170.278 52.7013 170.091 52.104L167.627 44.824C167.515 44.6 167.403 44.4507 167.291 44.376C167.216 44.264 167.048 44.208 166.787 44.208H154.075C153.664 44.208 153.403 44.4133 153.291 44.824L150.659 52.216C150.472 52.7387 150.062 53 149.427 53H141.867ZM164.267 35.696C164.64 35.696 164.827 35.5093 164.827 35.136C164.827 34.912 164.808 34.744 164.771 34.632L160.739 23.376C160.702 23.152 160.59 23.04 160.403 23.04C160.254 23.04 160.142 23.152 160.067 23.376L155.979 34.632C155.904 34.7813 155.867 34.968 155.867 35.192C155.867 35.528 156.091 35.696 156.539 35.696H164.267ZM190.82 53C190.409 53 190.092 52.8693 189.868 52.608C189.644 52.3467 189.532 51.992 189.532 51.544V12.624C189.532 12.2133 189.606 11.9147 189.756 11.728C189.942 11.5413 190.222 11.448 190.596 11.448H204.316C204.764 11.448 205.081 11.5227 205.268 11.672C205.454 11.784 205.622 12.0267 205.772 12.4L212.828 32.896C212.94 33.1947 213.07 33.344 213.22 33.344C213.369 33.344 213.5 33.1947 213.612 32.896L220.164 12.904C220.462 11.9333 220.929 11.448 221.564 11.448H235.732C236.366 11.448 236.684 11.8027 236.684 12.512V51.544C236.684 52.0667 236.553 52.44 236.292 52.664C236.068 52.888 235.657 53 235.06 53H226.716C226.193 53 225.838 52.9067 225.652 52.72C225.465 52.496 225.372 52.16 225.372 51.712V25.28C225.372 25.0187 225.297 24.888 225.148 24.888C224.998 24.888 224.868 25.0373 224.756 25.336L215.908 52.048C215.684 52.6827 215.254 53 214.62 53H209.356C208.684 53 208.236 52.6827 208.012 52.048L199.164 25.728C199.052 25.392 198.94 25.224 198.828 25.224C198.678 25.224 198.604 25.4107 198.604 25.784V51.88C198.604 52.328 198.529 52.6267 198.38 52.776C198.23 52.9253 197.913 53 197.428 53H190.82ZM256.668 11.448C257.303 11.448 257.62 11.8027 257.62 12.512V51.488C257.62 52.048 257.49 52.44 257.228 52.664C256.967 52.888 256.538 53 255.94 53H247.652C247.13 53 246.775 52.9067 246.588 52.72C246.402 52.496 246.308 52.16 246.308 51.712V12.624C246.308 12.2507 246.383 11.9707 246.532 11.784C246.719 11.56 246.962 11.448 247.26 11.448H256.668ZM268.33 53C267.994 53 267.714 52.888 267.49 52.664C267.303 52.44 267.21 52.1787 267.21 51.88V12.792C267.21 12.3813 267.322 12.064 267.546 11.84C267.77 11.5787 268.068 11.448 268.442 11.448H284.458C290.095 11.448 294.388 12.3813 297.338 14.248C300.287 16.0773 301.762 18.784 301.762 22.368C301.762 24.384 301.202 26.1013 300.082 27.52C298.999 28.9387 297.114 30.2453 294.426 31.44C294.351 31.4773 294.314 31.552 294.314 31.664C294.314 31.7387 294.351 31.7947 294.426 31.832C297.412 32.8773 299.54 34.184 300.81 35.752C302.116 37.2827 302.77 39.28 302.77 41.744C302.77 45.552 301.314 48.3893 298.402 50.256C295.527 52.0853 291.14 53 285.242 53H268.33ZM285.298 28.136C286.828 28.136 288.079 27.744 289.05 26.96C290.058 26.1387 290.562 25.0373 290.562 23.656C290.562 22.2373 290.02 21.1173 288.938 20.296C287.892 19.4373 286.53 19.008 284.85 19.008H279.698C279.25 19.008 278.932 19.0827 278.746 19.232C278.596 19.3813 278.522 19.6427 278.522 20.016V26.96C278.522 27.3707 278.578 27.6693 278.69 27.856C278.802 28.0427 279.026 28.136 279.362 28.136H285.298ZM284.962 45.44C286.903 45.44 288.396 44.992 289.442 44.096C290.487 43.1627 291.01 41.9867 291.01 40.568C291.01 39.112 290.487 37.9733 289.442 37.152C288.396 36.2933 287.015 35.864 285.298 35.864H279.698C279.25 35.864 278.932 35.9573 278.746 36.144C278.596 36.2933 278.522 36.5733 278.522 36.984V44.32C278.522 44.7307 278.578 45.0293 278.69 45.216C278.802 45.3653 279.026 45.44 279.362 45.44H284.962Z" fill="#181818"/>
<path d="M105.712 58.612C105.815 58.612 105.866 58.6727 105.866 58.794V68.818C105.866 68.874 105.847 68.9207 105.81 68.958C105.773 68.986 105.721 69 105.656 69H104.746C104.671 69 104.611 68.9953 104.564 68.986C104.527 68.9673 104.485 68.9253 104.438 68.86L99.328 61.524C99.2907 61.4587 99.2533 61.4307 99.216 61.44C99.188 61.4493 99.174 61.482 99.174 61.538V68.804C99.174 68.9347 99.0993 69 98.95 69H97.956C97.8067 69 97.732 68.9347 97.732 68.804V58.822C97.732 58.7473 97.746 58.696 97.774 58.668C97.8113 58.6307 97.8673 58.612 97.942 58.612H99.034C99.118 58.612 99.1787 58.626 99.216 58.654C99.2627 58.6727 99.3047 58.7147 99.342 58.78L104.242 65.878C104.298 65.9433 104.34 65.976 104.368 65.976C104.424 65.976 104.452 65.934 104.452 65.85V58.808C104.452 58.6773 104.517 58.612 104.648 58.612H105.712ZM109.91 65.808C109.91 66.228 110.008 66.6107 110.204 66.956C110.409 67.292 110.684 67.5627 111.03 67.768C111.375 67.964 111.753 68.062 112.164 68.062C112.593 68.062 112.976 67.9733 113.312 67.796C113.648 67.6187 113.956 67.3433 114.236 66.97C114.264 66.9327 114.296 66.914 114.334 66.914C114.38 66.914 114.418 66.9233 114.446 66.942L115.16 67.278C115.206 67.306 115.23 67.3433 115.23 67.39C115.23 67.418 115.216 67.4553 115.188 67.502C114.796 68.0807 114.348 68.5007 113.844 68.762C113.34 69.014 112.728 69.14 112.01 69.14C111.31 69.14 110.684 68.9813 110.134 68.664C109.583 68.3467 109.154 67.9033 108.846 67.334C108.538 66.7553 108.384 66.102 108.384 65.374C108.384 64.59 108.542 63.8993 108.86 63.302C109.177 62.7047 109.606 62.2473 110.148 61.93C110.698 61.6033 111.31 61.44 111.982 61.44C112.672 61.44 113.279 61.594 113.802 61.902C114.324 62.2007 114.726 62.6393 115.006 63.218C115.295 63.7967 115.44 64.4827 115.44 65.276V65.332C115.44 65.416 115.426 65.4813 115.398 65.528C115.379 65.5653 115.323 65.584 115.23 65.584H110.05C109.956 65.584 109.91 65.6587 109.91 65.808ZM113.732 64.702C113.825 64.702 113.886 64.688 113.914 64.66C113.951 64.632 113.97 64.5807 113.97 64.506C113.97 64.142 113.89 63.8013 113.732 63.484C113.582 63.1667 113.358 62.9147 113.06 62.728C112.77 62.532 112.425 62.434 112.024 62.434C111.604 62.434 111.235 62.5413 110.918 62.756C110.6 62.9613 110.353 63.2367 110.176 63.582C110.008 63.918 109.928 64.2867 109.938 64.688L113.732 64.702ZM119.852 62.644C119.768 62.644 119.726 62.6907 119.726 62.784V66.886C119.726 67.278 119.796 67.5487 119.936 67.698C120.086 67.8473 120.319 67.922 120.636 67.922H121.532C121.644 67.922 121.7 67.978 121.7 68.09V68.692C121.7 68.8227 121.63 68.902 121.49 68.93C121.192 68.9767 120.716 69 120.062 69C119.446 69 118.989 68.86 118.69 68.58C118.392 68.2907 118.242 67.8473 118.242 67.25V62.812C118.242 62.7 118.196 62.644 118.102 62.644H117.052C116.931 62.644 116.87 62.588 116.87 62.476V61.734C116.87 61.6313 116.926 61.58 117.038 61.58H118.158C118.233 61.58 118.27 61.538 118.27 61.454L118.438 59.256C118.457 59.1253 118.513 59.06 118.606 59.06H119.572C119.694 59.06 119.754 59.1347 119.754 59.284V61.454C119.754 61.538 119.796 61.58 119.88 61.58H121.56C121.672 61.58 121.728 61.6313 121.728 61.734V62.476C121.728 62.588 121.663 62.644 121.532 62.644H119.852ZM133.55 61.58C133.615 61.58 133.662 61.608 133.69 61.664C133.727 61.7107 133.732 61.762 133.704 61.818L131.52 68.804C131.501 68.8787 131.468 68.93 131.422 68.958C131.384 68.986 131.328 69 131.254 69H130.428C130.25 69 130.143 68.93 130.106 68.79L128.594 63.988C128.566 63.904 128.533 63.862 128.496 63.862C128.468 63.862 128.44 63.904 128.412 63.988L126.942 68.804C126.923 68.8787 126.89 68.93 126.844 68.958C126.806 68.986 126.75 69 126.676 69H125.808C125.64 69 125.537 68.93 125.5 68.79L123.274 61.832C123.264 61.8133 123.26 61.79 123.26 61.762C123.26 61.7153 123.274 61.6733 123.302 61.636C123.339 61.5987 123.386 61.58 123.442 61.58H124.534C124.655 61.58 124.739 61.6407 124.786 61.762L126.326 66.746C126.354 66.83 126.386 66.872 126.424 66.872C126.461 66.872 126.494 66.8253 126.522 66.732L128.034 61.748C128.062 61.636 128.141 61.58 128.272 61.58H129.084C129.214 61.58 129.294 61.6407 129.322 61.762L130.89 66.746C130.918 66.83 130.95 66.872 130.988 66.872C131.025 66.872 131.058 66.8253 131.086 66.732L132.57 61.748C132.616 61.636 132.705 61.58 132.836 61.58H133.55ZM138.992 69.14C138.283 69.14 137.653 68.9813 137.102 68.664C136.561 68.3373 136.141 67.8847 135.842 67.306C135.543 66.7273 135.394 66.0693 135.394 65.332C135.394 64.576 135.548 63.904 135.856 63.316C136.164 62.7187 136.589 62.2567 137.13 61.93C137.681 61.6033 138.306 61.44 139.006 61.44C139.715 61.44 140.341 61.608 140.882 61.944C141.433 62.2707 141.857 62.728 142.156 63.316C142.455 63.904 142.604 64.5713 142.604 65.318C142.604 66.0553 142.45 66.7133 142.142 67.292C141.843 67.8707 141.419 68.3233 140.868 68.65C140.327 68.9767 139.701 69.14 138.992 69.14ZM139.02 68.09C139.673 68.09 140.182 67.8473 140.546 67.362C140.91 66.8673 141.092 66.1767 141.092 65.29C141.092 64.4033 140.905 63.7127 140.532 63.218C140.168 62.714 139.659 62.462 139.006 62.462C138.353 62.462 137.839 62.714 137.466 63.218C137.093 63.7127 136.906 64.4033 136.906 65.29C136.906 66.1673 137.093 66.8533 137.466 67.348C137.839 67.8427 138.357 68.09 139.02 68.09ZM145.091 69C144.941 69 144.867 68.9253 144.867 68.776V61.79C144.867 61.65 144.927 61.58 145.049 61.58H146.127C146.239 61.58 146.295 61.6407 146.295 61.762V62.644C146.295 62.7 146.309 62.7327 146.337 62.742C146.374 62.7513 146.411 62.7327 146.449 62.686C146.794 62.2847 147.149 61.9767 147.513 61.762C147.886 61.5473 148.25 61.44 148.605 61.44C148.931 61.44 149.095 61.5053 149.095 61.636V62.728C149.095 62.84 149.043 62.8867 148.941 62.868C148.763 62.8213 148.516 62.798 148.199 62.798C147.937 62.798 147.662 62.8727 147.373 63.022C147.083 63.162 146.841 63.3487 146.645 63.582C146.449 63.8153 146.351 64.0533 146.351 64.296V68.762C146.351 68.9207 146.262 69 146.085 69H145.091ZM157.838 68.734C157.856 68.762 157.866 68.804 157.866 68.86C157.866 68.9533 157.805 69 157.684 69H156.438C156.307 69 156.214 68.93 156.158 68.79L154.24 65.402C154.212 65.346 154.184 65.318 154.156 65.318C154.128 65.318 154.095 65.3367 154.058 65.374L152.728 66.704C152.653 66.7693 152.616 66.8673 152.616 66.998V68.734C152.616 68.8367 152.592 68.9067 152.546 68.944C152.508 68.9813 152.438 69 152.336 69H151.37C151.276 69 151.211 68.986 151.174 68.958C151.146 68.9207 151.132 68.86 151.132 68.776V58.822C151.132 58.682 151.192 58.612 151.314 58.612H152.434C152.555 58.612 152.616 58.682 152.616 58.822V65.08C152.616 65.164 152.634 65.206 152.672 65.206C152.69 65.206 152.723 65.1827 152.77 65.136L155.962 61.762C156.083 61.6407 156.19 61.58 156.284 61.58H157.334C157.464 61.58 157.53 61.6173 157.53 61.692C157.53 61.748 157.497 61.8087 157.432 61.874L155.304 64.044C155.257 64.0907 155.234 64.1373 155.234 64.184C155.234 64.212 155.248 64.2633 155.276 64.338L157.838 68.734ZM163.313 69C163.201 69 163.145 68.944 163.145 68.832L163.173 68.706L166.743 58.836C166.771 58.752 166.808 58.696 166.855 58.668C166.901 58.6307 166.967 58.612 167.051 58.612H168.465C168.642 58.612 168.759 58.6913 168.815 58.85L172.357 68.72C172.366 68.7387 172.371 68.7713 172.371 68.818C172.371 68.9393 172.319 69 172.217 69H170.887C170.765 69 170.686 68.944 170.649 68.832L169.753 66.34C169.734 66.2933 169.715 66.2607 169.697 66.242C169.678 66.2233 169.641 66.214 169.585 66.214H165.707C165.623 66.214 165.567 66.2513 165.539 66.326L164.629 68.86C164.601 68.9533 164.521 69 164.391 69H163.313ZM169.151 64.898C169.216 64.898 169.253 64.884 169.263 64.856C169.281 64.8187 169.281 64.7673 169.263 64.702L167.751 60.502C167.723 60.4367 167.69 60.404 167.653 60.404C167.615 60.404 167.583 60.4413 167.555 60.516L166.001 64.716L165.987 64.8C165.987 64.8653 166.029 64.898 166.113 64.898H169.151ZM177.806 61.44C178.534 61.44 179.15 61.6127 179.654 61.958C180.158 62.3033 180.536 62.7513 180.788 63.302C180.806 63.3393 180.816 63.3813 180.816 63.428C180.816 63.484 180.774 63.5213 180.69 63.54L179.696 63.708H179.654C179.598 63.708 179.551 63.6707 179.514 63.596C179.252 63.2133 179 62.9333 178.758 62.756C178.515 62.5693 178.221 62.476 177.876 62.476C177.222 62.476 176.704 62.7233 176.322 63.218C175.939 63.7127 175.748 64.4033 175.748 65.29C175.748 66.186 175.944 66.8813 176.336 67.376C176.728 67.8707 177.26 68.118 177.932 68.118C178.352 68.118 178.711 68.0107 179.01 67.796C179.318 67.5813 179.602 67.2593 179.864 66.83C179.892 66.7927 179.92 66.7693 179.948 66.76C179.976 66.7507 180.013 66.7553 180.06 66.774L180.802 66.998C180.886 67.026 180.904 67.096 180.858 67.208C180.596 67.7587 180.209 68.2207 179.696 68.594C179.192 68.958 178.562 69.14 177.806 69.14C177.115 69.14 176.499 68.9813 175.958 68.664C175.416 68.3373 174.992 67.8847 174.684 67.306C174.385 66.7273 174.236 66.0647 174.236 65.318C174.236 64.5713 174.39 63.904 174.698 63.316C175.006 62.728 175.43 62.2707 175.972 61.944C176.513 61.608 177.124 61.44 177.806 61.44ZM186.135 61.44C186.863 61.44 187.479 61.6127 187.983 61.958C188.487 62.3033 188.865 62.7513 189.117 63.302C189.135 63.3393 189.145 63.3813 189.145 63.428C189.145 63.484 189.103 63.5213 189.019 63.54L188.025 63.708H187.983C187.927 63.708 187.88 63.6707 187.843 63.596C187.581 63.2133 187.329 62.9333 187.087 62.756C186.844 62.5693 186.55 62.476 186.205 62.476C185.551 62.476 185.033 62.7233 184.651 63.218C184.268 63.7127 184.077 64.4033 184.077 65.29C184.077 66.186 184.273 66.8813 184.665 67.376C185.057 67.8707 185.589 68.118 186.261 68.118C186.681 68.118 187.04 68.0107 187.339 67.796C187.647 67.5813 187.931 67.2593 188.193 66.83C188.221 66.7927 188.249 66.7693 188.277 66.76C188.305 66.7507 188.342 66.7553 188.389 66.774L189.131 66.998C189.215 67.026 189.233 67.096 189.187 67.208C188.925 67.7587 188.538 68.2207 188.025 68.594C187.521 68.958 186.891 69.14 186.135 69.14C185.444 69.14 184.828 68.9813 184.287 68.664C183.745 68.3373 183.321 67.8847 183.013 67.306C182.714 66.7273 182.565 66.0647 182.565 65.318C182.565 64.5713 182.719 63.904 183.027 63.316C183.335 62.728 183.759 62.2707 184.301 61.944C184.842 61.608 185.453 61.44 186.135 61.44ZM192.419 65.808C192.419 66.228 192.517 66.6107 192.713 66.956C192.919 67.292 193.194 67.5627 193.539 67.768C193.885 67.964 194.263 68.062 194.673 68.062C195.103 68.062 195.485 67.9733 195.821 67.796C196.157 67.6187 196.465 67.3433 196.745 66.97C196.773 66.9327 196.806 66.914 196.843 66.914C196.89 66.914 196.927 66.9233 196.955 66.942L197.669 67.278C197.716 67.306 197.739 67.3433 197.739 67.39C197.739 67.418 197.725 67.4553 197.697 67.502C197.305 68.0807 196.857 68.5007 196.353 68.762C195.849 69.014 195.238 69.14 194.519 69.14C193.819 69.14 193.194 68.9813 192.643 68.664C192.093 68.3467 191.663 67.9033 191.355 67.334C191.047 66.7553 190.893 66.102 190.893 65.374C190.893 64.59 191.052 63.8993 191.369 63.302C191.687 62.7047 192.116 62.2473 192.657 61.93C193.208 61.6033 193.819 61.44 194.491 61.44C195.182 61.44 195.789 61.594 196.311 61.902C196.834 62.2007 197.235 62.6393 197.515 63.218C197.805 63.7967 197.949 64.4827 197.949 65.276V65.332C197.949 65.416 197.935 65.4813 197.907 65.528C197.889 65.5653 197.833 65.584 197.739 65.584H192.559C192.466 65.584 192.419 65.6587 192.419 65.808ZM196.241 64.702C196.335 64.702 196.395 64.688 196.423 64.66C196.461 64.632 196.479 64.5807 196.479 64.506C196.479 64.142 196.4 63.8013 196.241 63.484C196.092 63.1667 195.868 62.9147 195.569 62.728C195.28 62.532 194.935 62.434 194.533 62.434C194.113 62.434 193.745 62.5413 193.427 62.756C193.11 62.9613 192.863 63.2367 192.685 63.582C192.517 63.918 192.438 64.2867 192.447 64.688L196.241 64.702ZM204.628 63.316C204.432 63.0453 204.175 62.8307 203.858 62.672C203.541 62.504 203.172 62.42 202.752 62.42C202.285 62.42 201.903 62.518 201.604 62.714C201.305 62.9007 201.156 63.1573 201.156 63.484C201.156 63.6707 201.231 63.8387 201.38 63.988C201.529 64.1373 201.8 64.268 202.192 64.38L203.914 64.87C204.567 65.038 205.048 65.2993 205.356 65.654C205.673 65.9993 205.832 66.41 205.832 66.886C205.832 67.334 205.697 67.7307 205.426 68.076C205.165 68.412 204.796 68.6733 204.32 68.86C203.844 69.0467 203.307 69.14 202.71 69.14C201.963 69.14 201.305 69 200.736 68.72C200.167 68.4307 199.761 68.0573 199.518 67.6C199.49 67.5533 199.476 67.5113 199.476 67.474C199.476 67.418 199.499 67.376 199.546 67.348L200.232 66.984C200.288 66.956 200.335 66.942 200.372 66.942C200.419 66.942 200.456 66.9607 200.484 66.998C200.979 67.7447 201.711 68.118 202.682 68.118C203.195 68.118 203.62 68.0247 203.956 67.838C204.292 67.642 204.46 67.3807 204.46 67.054C204.46 66.8207 204.362 66.6247 204.166 66.466C203.979 66.298 203.667 66.158 203.228 66.046L201.8 65.682C201.109 65.514 200.605 65.2667 200.288 64.94C199.971 64.6133 199.812 64.2027 199.812 63.708C199.812 63.26 199.933 62.868 200.176 62.532C200.428 62.1867 200.773 61.9207 201.212 61.734C201.66 61.538 202.178 61.44 202.766 61.44C203.401 61.44 203.97 61.5613 204.474 61.804C204.978 62.0467 205.356 62.364 205.608 62.756C205.645 62.812 205.664 62.8587 205.664 62.896C205.664 62.9333 205.641 62.966 205.594 62.994L204.866 63.372C204.847 63.3813 204.819 63.386 204.782 63.386C204.726 63.386 204.675 63.3627 204.628 63.316ZM212.574 63.316C212.378 63.0453 212.121 62.8307 211.804 62.672C211.487 62.504 211.118 62.42 210.698 62.42C210.231 62.42 209.849 62.518 209.55 62.714C209.251 62.9007 209.102 63.1573 209.102 63.484C209.102 63.6707 209.177 63.8387 209.326 63.988C209.475 64.1373 209.746 64.268 210.138 64.38L211.86 64.87C212.513 65.038 212.994 65.2993 213.302 65.654C213.619 65.9993 213.778 66.41 213.778 66.886C213.778 67.334 213.643 67.7307 213.372 68.076C213.111 68.412 212.742 68.6733 212.266 68.86C211.79 69.0467 211.253 69.14 210.656 69.14C209.909 69.14 209.251 69 208.682 68.72C208.113 68.4307 207.707 68.0573 207.464 67.6C207.436 67.5533 207.422 67.5113 207.422 67.474C207.422 67.418 207.445 67.376 207.492 67.348L208.178 66.984C208.234 66.956 208.281 66.942 208.318 66.942C208.365 66.942 208.402 66.9607 208.43 66.998C208.925 67.7447 209.657 68.118 210.628 68.118C211.141 68.118 211.566 68.0247 211.902 67.838C212.238 67.642 212.406 67.3807 212.406 67.054C212.406 66.8207 212.308 66.6247 212.112 66.466C211.925 66.298 211.613 66.158 211.174 66.046L209.746 65.682C209.055 65.514 208.551 65.2667 208.234 64.94C207.917 64.6133 207.758 64.2027 207.758 63.708C207.758 63.26 207.879 62.868 208.122 62.532C208.374 62.1867 208.719 61.9207 209.158 61.734C209.606 61.538 210.124 61.44 210.712 61.44C211.347 61.44 211.916 61.5613 212.42 61.804C212.924 62.0467 213.302 62.364 213.554 62.756C213.591 62.812 213.61 62.8587 213.61 62.896C213.61 62.9333 213.587 62.966 213.54 62.994L212.812 63.372C212.793 63.3813 212.765 63.386 212.728 63.386C212.672 63.386 212.621 63.3627 212.574 63.316ZM220.169 69C220.02 69 219.945 68.9207 219.945 68.762V58.822C219.945 58.7473 219.959 58.696 219.987 58.668C220.015 58.6307 220.066 58.612 220.141 58.612H221.975C222.059 58.612 222.12 58.626 222.157 58.654C222.194 58.6727 222.222 58.7147 222.241 58.78L225.041 66.13C225.069 66.214 225.102 66.256 225.139 66.256C225.167 66.256 225.204 66.2093 225.251 66.116L228.009 58.836C228.065 58.6867 228.149 58.612 228.261 58.612H230.165C230.286 58.612 230.347 58.682 230.347 58.822V68.748C230.347 68.8413 230.328 68.9067 230.291 68.944C230.254 68.9813 230.188 69 230.095 69H228.891C228.807 69 228.746 68.986 228.709 68.958C228.672 68.9207 228.653 68.86 228.653 68.776V61.104C228.653 61.0573 228.644 61.0387 228.625 61.048C228.606 61.048 228.588 61.0713 228.569 61.118L225.685 68.804C225.638 68.9347 225.55 69 225.419 69H224.579C224.439 69 224.341 68.9393 224.285 68.818L221.457 61.202C221.438 61.1367 221.415 61.1087 221.387 61.118C221.368 61.118 221.359 61.146 221.359 61.202V68.804C221.359 68.8787 221.345 68.93 221.317 68.958C221.289 68.986 221.233 69 221.149 69H220.169ZM237.5 68.16C236.819 68.8133 236.021 69.14 235.106 69.14C234.387 69.14 233.818 68.958 233.398 68.594C232.987 68.2207 232.782 67.726 232.782 67.11C232.782 66.354 233.109 65.752 233.762 65.304C234.425 64.856 235.363 64.604 236.576 64.548L237.486 64.478C237.635 64.4593 237.71 64.3893 237.71 64.268V63.918C237.71 63.4607 237.57 63.1013 237.29 62.84C237.01 62.5693 236.627 62.434 236.142 62.434C235.377 62.434 234.765 62.7793 234.308 63.47C234.28 63.526 234.247 63.5633 234.21 63.582C234.182 63.5913 234.135 63.5867 234.07 63.568L233.118 63.288C233.062 63.2693 233.034 63.232 233.034 63.176C233.034 63.1387 233.048 63.0873 233.076 63.022C233.337 62.518 233.734 62.1307 234.266 61.86C234.807 61.58 235.456 61.44 236.212 61.44C237.192 61.44 237.925 61.65 238.41 62.07C238.895 62.49 239.138 63.0733 239.138 63.82V68.762C239.138 68.8553 239.119 68.9207 239.082 68.958C239.054 68.986 239.003 69 238.928 69H237.99C237.859 69 237.785 68.9067 237.766 68.72L237.738 68.188C237.719 68.1133 237.691 68.076 237.654 68.076C237.626 68.076 237.575 68.104 237.5 68.16ZM237.71 65.514C237.71 65.3647 237.645 65.2947 237.514 65.304L236.758 65.36C235.983 65.4067 235.367 65.5653 234.91 65.836C234.462 66.0973 234.238 66.4613 234.238 66.928C234.238 67.292 234.369 67.5813 234.63 67.796C234.891 68.0013 235.241 68.104 235.68 68.104C236.184 68.104 236.66 67.9313 237.108 67.586C237.509 67.2593 237.71 66.9327 237.71 66.606V65.514ZM248.403 68.734C248.421 68.762 248.431 68.804 248.431 68.86C248.431 68.9533 248.37 69 248.249 69H247.003C246.872 69 246.779 68.93 246.723 68.79L244.805 65.402C244.777 65.346 244.749 65.318 244.721 65.318C244.693 65.318 244.66 65.3367 244.623 65.374L243.293 66.704C243.218 66.7693 243.181 66.8673 243.181 66.998V68.734C243.181 68.8367 243.157 68.9067 243.111 68.944C243.073 68.9813 243.003 69 242.901 69H241.935C241.841 69 241.776 68.986 241.739 68.958C241.711 68.9207 241.697 68.86 241.697 68.776V58.822C241.697 58.682 241.757 58.612 241.879 58.612H242.999C243.12 58.612 243.181 58.682 243.181 58.822V65.08C243.181 65.164 243.199 65.206 243.237 65.206C243.255 65.206 243.288 65.1827 243.335 65.136L246.527 61.762C246.648 61.6407 246.755 61.58 246.849 61.58H247.899C248.029 61.58 248.095 61.6173 248.095 61.692C248.095 61.748 248.062 61.8087 247.997 61.874L245.869 64.044C245.822 64.0907 245.799 64.1373 245.799 64.184C245.799 64.212 245.813 64.2633 245.841 64.338L248.403 68.734ZM251.118 65.808C251.118 66.228 251.216 66.6107 251.412 66.956C251.618 67.292 251.893 67.5627 252.238 67.768C252.584 67.964 252.962 68.062 253.372 68.062C253.802 68.062 254.184 67.9733 254.52 67.796C254.856 67.6187 255.164 67.3433 255.444 66.97C255.472 66.9327 255.505 66.914 255.542 66.914C255.589 66.914 255.626 66.9233 255.654 66.942L256.368 67.278C256.415 67.306 256.438 67.3433 256.438 67.39C256.438 67.418 256.424 67.4553 256.396 67.502C256.004 68.0807 255.556 68.5007 255.052 68.762C254.548 69.014 253.937 69.14 253.218 69.14C252.518 69.14 251.893 68.9813 251.342 68.664C250.792 68.3467 250.362 67.9033 250.054 67.334C249.746 66.7553 249.592 66.102 249.592 65.374C249.592 64.59 249.751 63.8993 250.068 63.302C250.386 62.7047 250.815 62.2473 251.356 61.93C251.907 61.6033 252.518 61.44 253.19 61.44C253.881 61.44 254.488 61.594 255.01 61.902C255.533 62.2007 255.934 62.6393 256.214 63.218C256.504 63.7967 256.648 64.4827 256.648 65.276V65.332C256.648 65.416 256.634 65.4813 256.606 65.528C256.588 65.5653 256.532 65.584 256.438 65.584H251.258C251.165 65.584 251.118 65.6587 251.118 65.808ZM254.94 64.702C255.034 64.702 255.094 64.688 255.122 64.66C255.16 64.632 255.178 64.5807 255.178 64.506C255.178 64.142 255.099 63.8013 254.94 63.484C254.791 63.1667 254.567 62.9147 254.268 62.728C253.979 62.532 253.634 62.434 253.232 62.434C252.812 62.434 252.444 62.5413 252.126 62.756C251.809 62.9613 251.562 63.2367 251.384 63.582C251.216 63.918 251.137 64.2867 251.146 64.688L254.94 64.702ZM263.327 63.316C263.131 63.0453 262.874 62.8307 262.557 62.672C262.239 62.504 261.871 62.42 261.451 62.42C260.984 62.42 260.601 62.518 260.303 62.714C260.004 62.9007 259.855 63.1573 259.855 63.484C259.855 63.6707 259.929 63.8387 260.079 63.988C260.228 64.1373 260.499 64.268 260.891 64.38L262.613 64.87C263.266 65.038 263.747 65.2993 264.055 65.654C264.372 65.9993 264.531 66.41 264.531 66.886C264.531 67.334 264.395 67.7307 264.125 68.076C263.863 68.412 263.495 68.6733 263.019 68.86C262.543 69.0467 262.006 69.14 261.409 69.14C260.662 69.14 260.004 69 259.435 68.72C258.865 68.4307 258.459 68.0573 258.217 67.6C258.189 67.5533 258.175 67.5113 258.175 67.474C258.175 67.418 258.198 67.376 258.245 67.348L258.931 66.984C258.987 66.956 259.033 66.942 259.071 66.942C259.117 66.942 259.155 66.9607 259.183 66.998C259.677 67.7447 260.41 68.118 261.381 68.118C261.894 68.118 262.319 68.0247 262.655 67.838C262.991 67.642 263.159 67.3807 263.159 67.054C263.159 66.8207 263.061 66.6247 262.865 66.466C262.678 66.298 262.365 66.158 261.927 66.046L260.499 65.682C259.808 65.514 259.304 65.2667 258.987 64.94C258.669 64.6133 258.511 64.2027 258.511 63.708C258.511 63.26 258.632 62.868 258.875 62.532C259.127 62.1867 259.472 61.9207 259.911 61.734C260.359 61.538 260.877 61.44 261.465 61.44C262.099 61.44 262.669 61.5613 263.173 61.804C263.677 62.0467 264.055 62.364 264.307 62.756C264.344 62.812 264.363 62.8587 264.363 62.896C264.363 62.9333 264.339 62.966 264.293 62.994L263.565 63.372C263.546 63.3813 263.518 63.386 263.481 63.386C263.425 63.386 263.373 63.3627 263.327 63.316ZM272.21 58.612C272.331 58.612 272.392 58.682 272.392 58.822V68.734C272.392 68.8367 272.368 68.9067 272.322 68.944C272.284 68.9813 272.21 69 272.098 69H270.95C270.856 69 270.791 68.986 270.754 68.958C270.716 68.9207 270.698 68.86 270.698 68.776V58.822C270.698 58.682 270.763 58.612 270.894 58.612H272.21ZM278.522 69.14C277.812 69.14 277.182 68.9813 276.632 68.664C276.09 68.3373 275.67 67.8847 275.372 67.306C275.073 66.7273 274.924 66.0693 274.924 65.332C274.924 64.576 275.078 63.904 275.386 63.316C275.694 62.7187 276.118 62.2567 276.66 61.93C277.21 61.6033 277.836 61.44 278.536 61.44C279.245 61.44 279.87 61.608 280.412 61.944C280.962 62.2707 281.387 62.728 281.686 63.316C281.984 63.904 282.134 64.5713 282.134 65.318C282.134 66.0553 281.98 66.7133 281.672 67.292C281.373 67.8707 280.948 68.3233 280.398 68.65C279.856 68.9767 279.231 69.14 278.522 69.14ZM278.55 68.09C279.203 68.09 279.712 67.8473 280.076 67.362C280.44 66.8673 280.622 66.1767 280.622 65.29C280.622 64.4033 280.435 63.7127 280.062 63.218C279.698 62.714 279.189 62.462 278.536 62.462C277.882 62.462 277.369 62.714 276.996 63.218C276.622 63.7127 276.436 64.4033 276.436 65.29C276.436 66.1673 276.622 66.8533 276.996 67.348C277.369 67.8427 277.887 68.09 278.55 68.09ZM283.962 58.808C283.962 58.6773 284.032 58.612 284.172 58.612H291.858C291.989 58.612 292.054 58.6773 292.054 58.808V59.704C292.054 59.816 291.989 59.872 291.858 59.872H289.086C289.03 59.872 288.993 59.8813 288.974 59.9C288.956 59.9187 288.946 59.9513 288.946 59.998V68.79C288.946 68.93 288.881 69 288.75 69H287.434C287.313 69 287.252 68.9347 287.252 68.804V60.026C287.252 59.9607 287.238 59.9187 287.21 59.9C287.192 59.8813 287.154 59.872 287.098 59.872H284.158C284.028 59.872 283.962 59.816 283.962 59.704V58.808ZM298.413 69C298.347 69 298.296 68.9813 298.259 68.944C298.221 68.9067 298.203 68.86 298.203 68.804V58.85C298.203 58.6913 298.277 58.612 298.427 58.612H301.829C303.117 58.612 304.106 58.8453 304.797 59.312C305.487 59.7693 305.833 60.4367 305.833 61.314C305.833 61.8647 305.688 62.3313 305.399 62.714C305.109 63.0873 304.643 63.3907 303.999 63.624C303.961 63.6333 303.943 63.6567 303.943 63.694C303.943 63.722 303.961 63.7407 303.999 63.75C304.689 63.9367 305.207 64.2307 305.553 64.632C305.907 65.0333 306.085 65.5607 306.085 66.214C306.085 67.1473 305.735 67.8473 305.035 68.314C304.335 68.7713 303.308 69 301.955 69H298.413ZM302.025 63.134C302.613 63.134 303.112 63.0033 303.523 62.742C303.933 62.4807 304.139 62.07 304.139 61.51C304.139 60.95 303.933 60.5253 303.523 60.236C303.121 59.9467 302.566 59.802 301.857 59.802H300.107C299.967 59.802 299.897 59.8627 299.897 59.984V62.938C299.897 63.0687 299.948 63.134 300.051 63.134H302.025ZM301.885 67.81C303.509 67.81 304.321 67.2453 304.321 66.116C304.321 65.528 304.111 65.0893 303.691 64.8C303.271 64.5107 302.715 64.366 302.025 64.366H300.121C300.037 64.366 299.976 64.38 299.939 64.408C299.911 64.436 299.897 64.4827 299.897 64.548V67.6C299.897 67.74 299.948 67.81 300.051 67.81H301.885ZM309.683 65.808C309.683 66.228 309.781 66.6107 309.977 66.956C310.182 67.292 310.458 67.5627 310.803 67.768C311.148 67.964 311.526 68.062 311.937 68.062C312.366 68.062 312.749 67.9733 313.085 67.796C313.421 67.6187 313.729 67.3433 314.009 66.97C314.037 66.9327 314.07 66.914 314.107 66.914C314.154 66.914 314.191 66.9233 314.219 66.942L314.933 67.278C314.98 67.306 315.003 67.3433 315.003 67.39C315.003 67.418 314.989 67.4553 314.961 67.502C314.569 68.0807 314.121 68.5007 313.617 68.762C313.113 69.014 312.502 69.14 311.783 69.14C311.083 69.14 310.458 68.9813 309.907 68.664C309.356 68.3467 308.927 67.9033 308.619 67.334C308.311 66.7553 308.157 66.102 308.157 65.374C308.157 64.59 308.316 63.8993 308.633 63.302C308.95 62.7047 309.38 62.2473 309.921 61.93C310.472 61.6033 311.083 61.44 311.755 61.44C312.446 61.44 313.052 61.594 313.575 61.902C314.098 62.2007 314.499 62.6393 314.779 63.218C315.068 63.7967 315.213 64.4827 315.213 65.276V65.332C315.213 65.416 315.199 65.4813 315.171 65.528C315.152 65.5653 315.096 65.584 315.003 65.584H309.823C309.73 65.584 309.683 65.6587 309.683 65.808ZM313.505 64.702C313.598 64.702 313.659 64.688 313.687 64.66C313.724 64.632 313.743 64.5807 313.743 64.506C313.743 64.142 313.664 63.8013 313.505 63.484C313.356 63.1667 313.132 62.9147 312.833 62.728C312.544 62.532 312.198 62.434 311.797 62.434C311.377 62.434 311.008 62.5413 310.691 62.756C310.374 62.9613 310.126 63.2367 309.949 63.582C309.781 63.918 309.702 64.2867 309.711 64.688L313.505 64.702ZM319.626 62.644C319.542 62.644 319.5 62.6907 319.5 62.784V66.886C319.5 67.278 319.57 67.5487 319.71 67.698C319.859 67.8473 320.093 67.922 320.41 67.922H321.306C321.418 67.922 321.474 67.978 321.474 68.09V68.692C321.474 68.8227 321.404 68.902 321.264 68.93C320.965 68.9767 320.489 69 319.836 69C319.22 69 318.763 68.86 318.464 68.58C318.165 68.2907 318.016 67.8473 318.016 67.25V62.812C318.016 62.7 317.969 62.644 317.876 62.644H316.826C316.705 62.644 316.644 62.588 316.644 62.476V61.734C316.644 61.6313 316.7 61.58 316.812 61.58H317.932C318.007 61.58 318.044 61.538 318.044 61.454L318.212 59.256C318.231 59.1253 318.287 59.06 318.38 59.06H319.346C319.467 59.06 319.528 59.1347 319.528 59.284V61.454C319.528 61.538 319.57 61.58 319.654 61.58H321.334C321.446 61.58 321.502 61.6313 321.502 61.734V62.476C321.502 62.588 321.437 62.644 321.306 62.644H319.626ZM325.945 62.644C325.861 62.644 325.819 62.6907 325.819 62.784V66.886C325.819 67.278 325.889 67.5487 326.029 67.698C326.178 67.8473 326.412 67.922 326.729 67.922H327.625C327.737 67.922 327.793 67.978 327.793 68.09V68.692C327.793 68.8227 327.723 68.902 327.583 68.93C327.284 68.9767 326.808 69 326.155 69C325.539 69 325.082 68.86 324.783 68.58C324.484 68.2907 324.335 67.8473 324.335 67.25V62.812C324.335 62.7 324.288 62.644 324.195 62.644H323.145C323.024 62.644 322.963 62.588 322.963 62.476V61.734C322.963 61.6313 323.019 61.58 323.131 61.58H324.251C324.326 61.58 324.363 61.538 324.363 61.454L324.531 59.256C324.55 59.1253 324.606 59.06 324.699 59.06H325.665C325.786 59.06 325.847 59.1347 325.847 59.284V61.454C325.847 61.538 325.889 61.58 325.973 61.58H327.653C327.765 61.58 327.821 61.6313 327.821 61.734V62.476C327.821 62.588 327.756 62.644 327.625 62.644H325.945ZM330.883 65.808C330.883 66.228 330.981 66.6107 331.177 66.956C331.382 67.292 331.657 67.5627 332.003 67.768C332.348 67.964 332.726 68.062 333.137 68.062C333.566 68.062 333.949 67.9733 334.285 67.796C334.621 67.6187 334.929 67.3433 335.209 66.97C335.237 66.9327 335.269 66.914 335.307 66.914C335.353 66.914 335.391 66.9233 335.419 66.942L336.133 67.278C336.179 67.306 336.203 67.3433 336.203 67.39C336.203 67.418 336.189 67.4553 336.161 67.502C335.769 68.0807 335.321 68.5007 334.817 68.762C334.313 69.014 333.701 69.14 332.983 69.14C332.283 69.14 331.657 68.9813 331.107 68.664C330.556 68.3467 330.127 67.9033 329.819 67.334C329.511 66.7553 329.357 66.102 329.357 65.374C329.357 64.59 329.515 63.8993 329.833 63.302C330.15 62.7047 330.579 62.2473 331.121 61.93C331.671 61.6033 332.283 61.44 332.955 61.44C333.645 61.44 334.252 61.594 334.775 61.902C335.297 62.2007 335.699 62.6393 335.979 63.218C336.268 63.7967 336.413 64.4827 336.413 65.276V65.332C336.413 65.416 336.399 65.4813 336.371 65.528C336.352 65.5653 336.296 65.584 336.203 65.584H331.023C330.929 65.584 330.883 65.6587 330.883 65.808ZM334.705 64.702C334.798 64.702 334.859 64.688 334.887 64.66C334.924 64.632 334.943 64.5807 334.943 64.506C334.943 64.142 334.863 63.8013 334.705 63.484C334.555 63.1667 334.331 62.9147 334.033 62.728C333.743 62.532 333.398 62.434 332.997 62.434C332.577 62.434 332.208 62.5413 331.891 62.756C331.573 62.9613 331.326 63.2367 331.149 63.582C330.981 63.918 330.901 64.2867 330.911 64.688L334.705 64.702ZM338.821 69C338.672 69 338.597 68.9253 338.597 68.776V61.79C338.597 61.65 338.658 61.58 338.779 61.58H339.857C339.969 61.58 340.025 61.6407 340.025 61.762V62.644C340.025 62.7 340.039 62.7327 340.067 62.742C340.105 62.7513 340.142 62.7327 340.179 62.686C340.525 62.2847 340.879 61.9767 341.243 61.762C341.617 61.5473 341.981 61.44 342.335 61.44C342.662 61.44 342.825 61.5053 342.825 61.636V62.728C342.825 62.84 342.774 62.8867 342.671 62.868C342.494 62.8213 342.247 62.798 341.929 62.798C341.668 62.798 341.393 62.8727 341.103 63.022C340.814 63.162 340.571 63.3487 340.375 63.582C340.179 63.8153 340.081 64.0533 340.081 64.296V68.762C340.081 68.9207 339.993 69 339.815 69H338.821Z" fill="#6b7437"/>
<g filter="url(#filter0_i)">
<path d="M37 1.73205C38.8564 0.660254 41.1436 0.660254 43 1.73205L71.641 18.268C73.4974 19.3397 74.641 21.3205 74.641 23.4641V56.5359C74.641 58.6795 73.4974 60.6603 71.641 61.7321L43 78.268C41.1436 79.3397 38.8564 79.3397 37 78.268L8.35898 61.7321C6.50257 60.6603 5.35898 58.6795 5.35898 56.5359V23.4641C5.35898 21.3205 6.50258 19.3397 8.35898 18.268L37 1.73205Z" fill="#dbec77"/>
</g>
<circle cx="40" cy="39" r="7.5" stroke="#6b7437" stroke-width="3"/>
<circle cx="36.5" cy="22.5" r="4" stroke="#6b7437" stroke-width="3"/>
<circle cx="26" cy="57" r="4.5" stroke="#6b7437" stroke-width="3"/>
<circle cx="57" cy="24" r="4.5" stroke="#6b7437" stroke-width="3"/>
<circle cx="51.5" cy="56.5" r="4" stroke="#6b7437" stroke-width="3"/>
<circle cx="20" cy="34" r="3.5" stroke="#6b7437" stroke-width="3"/>
<line x1="53.9878" y1="27.1289" x2="45.9878" y2="34.1289" stroke="#6b7437" stroke-width="3"/>
<line x1="37.4709" y1="27.7058" x2="38.4709" y2="32.7058" stroke="#6b7437" stroke-width="3"/>
<line x1="24.3254" y1="35.5357" x2="33.3254" y2="37.5357" stroke="#6b7437" stroke-width="3"/>
<line x1="29.8611" y1="53.0238" x2="35.8611" y2="46.0238" stroke="#6b7437" stroke-width="3"/>
<line x1="49.728" y1="52.795" x2="44.728" y2="44.795" stroke="#6b7437" stroke-width="3"/>
<defs>
<filter id="filter0_i" x="5.35898" y="0.9282" width="73.282" height="82.1436" filterUnits="userSpaceOnUse" color-interpolation-filters="sRGB">
<feFlood flood-opacity="0" result="BackgroundImageFix"/>
<feBlend mode="normal" in="SourceGraphic" in2="BackgroundImageFix" result="shape"/>
<feColorMatrix in="SourceAlpha" type="matrix" values="0 0 0 0 0 0 0 0 0 0 0 0 0 0 0 0 0 0 127 0" result="hardAlpha"/>
<feOffset dx="4" dy="4"/>
<feGaussianBlur stdDeviation="3"/>
<feComposite in2="hardAlpha" operator="arithmetic" k2="-1" k3="1"/>
<feColorMatrix type="matrix" values="0 0 0 0 0.833333 0 0 0 0 0.833333 0 0 0 0 0.833333 0 0 0 0.25 0"/>
<feBlend mode="normal" in2="shape" result="effect1_innerShadow"/>
</filter>
</defs>
</svg>
